<svg width="338" height="387" viewBox="0 0 338 387" fill="none" xmlns="http://www.w3.org/2000/svg">
<path d="M127.754 127.937V191.906H63.8772V127.937H127.754V63.9687H63.8772V0H0V63.9687V127.937V191.906V255.875H63.8772H127.754H191.632V191.906V127.937H127.754Z" fill="white"/>
<path d="M60.1694 384.944V336.293H72.7273V384.944H60.1694Z" fill="white"/>
<path d="M72.7276 320.688H60.1697V331.979H72.7276V320.688Z" fill="white"/>
<path d="M0 384.945V320.688H30.9823C42.9169 320.688 51.1666 327.39 51.1666 337.028C51.1666 344.555 45.7584 350.338 37.6921 351.991C46.7667 353.184 52.6332 359.242 52.6332 367.504C52.6332 377.877 44.0168 384.945 31.5506 384.945H0.0183366H0ZM12.6496 346.85H30.7073C35.4738 346.85 38.7737 343.729 38.7737 339.231C38.7737 334.733 35.7488 331.979 31.2573 331.979H12.6496V346.85ZM12.6496 373.654H31.8989C36.8488 373.654 39.6903 369.982 39.6903 365.668C39.6903 361.354 36.5738 357.682 31.1656 357.682H12.6496V373.654Z" fill="white"/>
<path d="M103.12 384.945C92.0292 384.945 85.9794 379.621 85.9794 369.615V346.85H77.8213V336.293H85.9794V320.688H98.5373V336.293H110.729V346.85H98.5373V368.422C98.5373 372.277 100.462 374.388 104.22 374.388H109.72V384.945H103.12Z" fill="white"/>
<path d="M116.848 384.947V336.296H126.931L127.848 342.813C130.69 338.224 136.464 334.735 143.797 334.735C150.672 334.735 155.805 337.948 158.464 343.548C161.122 338.683 167.08 334.735 174.871 334.735C184.954 334.735 191.463 341.895 191.463 352.727V384.947H178.996V353.278C178.996 348.505 176.063 345.384 171.388 345.384C164.788 345.384 160.389 349.698 160.389 355.481V384.947H147.922V353.278C147.922 348.505 144.989 345.384 140.314 345.384C133.714 345.384 129.406 349.698 129.406 355.481V384.947H116.848Z" fill="white"/>
<path d="M197.738 371.637C197.921 360.163 209.379 357.592 218.821 356.491C225.97 355.573 231.012 355.114 231.012 351.35C231.012 347.311 227.987 344.741 222.212 344.741C216.437 344.741 212.129 347.954 211.487 352.727H198.838C199.938 342.079 209.471 334.735 222.395 334.735C236.053 334.735 243.203 341.895 243.203 352.176V373.381C243.203 374.758 243.845 375.492 245.495 375.492H248.061V384.947H242.47C237.795 384.947 234.495 383.203 233.303 379.898C233.028 379.348 232.845 378.797 232.662 378.154C229.82 383.111 224.595 386.14 216.437 386.14C205.163 386.14 197.646 380.908 197.738 371.637ZM231.012 367.414V360.346C229.362 363.192 225.054 363.834 220.287 364.477C214.512 365.303 210.296 366.129 210.296 370.719C210.296 374.483 213.229 376.594 219.187 376.594C225.695 376.594 231.012 373.197 231.012 367.414Z" fill="white"/>
<path d="M253.65 384.946V336.295H263.733L265.292 346.025C268.408 339.233 274.091 335.653 282.066 335.653H284.083V347.77H282.066C272.075 347.77 266.208 352.91 266.208 361.722V384.946H253.65Z" fill="white"/>
<path d="M288.777 384.945V320.688H301.244V355.938L320.401 336.294H335.709L318.11 353.826L338.001 384.945H323.61L309.31 362.455L301.244 370.441V384.945H288.777Z" fill="white"/>
</svg>
